<mxfile host="app.diagrams.net" agent="Mozilla/5.0 (Windows NT 10.0; Win64; x64) AppleWebKit/537.36 (KHTML, like Gecko) Chrome/133.0.0.0 Safari/537.36" version="26.0.11">
  <diagram id="R2lEEEUBdFMjLlhIrx00" name="Page-1">
    <mxGraphModel dx="3804" dy="1098" grid="1" gridSize="10" guides="1" tooltips="1" connect="1" arrows="1" fold="1" page="1" pageScale="1" pageWidth="850" pageHeight="1100" math="0" shadow="0" extFonts="Permanent Marker^https://fonts.googleapis.com/css?family=Permanent+Marker">
      <root>
        <mxCell id="0" />
        <mxCell id="1" parent="0" />
        <mxCell id="rdGUtyS22fCp4dE0hmmU-15" value="Power+Signal Wire" style="edgeStyle=orthogonalEdgeStyle;rounded=0;orthogonalLoop=1;jettySize=auto;html=1;" edge="1" parent="1" source="rdGUtyS22fCp4dE0hmmU-4" target="rdGUtyS22fCp4dE0hmmU-6">
          <mxGeometry relative="1" as="geometry" />
        </mxCell>
        <mxCell id="rdGUtyS22fCp4dE0hmmU-16" value="Power + Signal Wire" style="edgeStyle=orthogonalEdgeStyle;rounded=0;orthogonalLoop=1;jettySize=auto;html=1;exitX=0.5;exitY=1;exitDx=0;exitDy=0;" edge="1" parent="1" source="rdGUtyS22fCp4dE0hmmU-4" target="rdGUtyS22fCp4dE0hmmU-5">
          <mxGeometry relative="1" as="geometry" />
        </mxCell>
        <mxCell id="rdGUtyS22fCp4dE0hmmU-20" value="Signal Wire&lt;div&gt;&lt;br&gt;&lt;/div&gt;" style="edgeStyle=orthogonalEdgeStyle;rounded=0;orthogonalLoop=1;jettySize=auto;html=1;entryX=0.5;entryY=1;entryDx=0;entryDy=0;" edge="1" parent="1" source="rdGUtyS22fCp4dE0hmmU-4" target="rdGUtyS22fCp4dE0hmmU-10">
          <mxGeometry relative="1" as="geometry" />
        </mxCell>
        <mxCell id="rdGUtyS22fCp4dE0hmmU-4" value="Control Board 1&lt;div&gt;&lt;br&gt;&lt;/div&gt;" style="rounded=1;whiteSpace=wrap;html=1;" vertex="1" parent="1">
          <mxGeometry x="-20" y="340" width="120" height="60" as="geometry" />
        </mxCell>
        <mxCell id="rdGUtyS22fCp4dE0hmmU-5" value="Servo on Gate 2" style="ellipse;whiteSpace=wrap;html=1;aspect=fixed;" vertex="1" parent="1">
          <mxGeometry x="290" y="510" width="80" height="80" as="geometry" />
        </mxCell>
        <mxCell id="rdGUtyS22fCp4dE0hmmU-6" value="Servo on Gate 1" style="ellipse;whiteSpace=wrap;html=1;aspect=fixed;" vertex="1" parent="1">
          <mxGeometry x="290" y="330" width="80" height="80" as="geometry" />
        </mxCell>
        <mxCell id="rdGUtyS22fCp4dE0hmmU-7" value="3HP Dust Collector" style="ellipse;whiteSpace=wrap;html=1;aspect=fixed;" vertex="1" parent="1">
          <mxGeometry x="-200" y="650" width="80" height="80" as="geometry" />
        </mxCell>
        <mxCell id="rdGUtyS22fCp4dE0hmmU-18" value="" style="edgeStyle=orthogonalEdgeStyle;rounded=0;orthogonalLoop=1;jettySize=auto;html=1;" edge="1" parent="1" source="rdGUtyS22fCp4dE0hmmU-8" target="rdGUtyS22fCp4dE0hmmU-17">
          <mxGeometry relative="1" as="geometry" />
        </mxCell>
        <mxCell id="rdGUtyS22fCp4dE0hmmU-8" value="Dust Collector Relay controller" style="rounded=1;whiteSpace=wrap;html=1;" vertex="1" parent="1">
          <mxGeometry x="-430" y="550" width="120" height="60" as="geometry" />
        </mxCell>
        <mxCell id="rdGUtyS22fCp4dE0hmmU-23" value="Low Voltage Wiring" style="edgeStyle=orthogonalEdgeStyle;rounded=0;orthogonalLoop=1;jettySize=auto;html=1;" edge="1" parent="1" source="rdGUtyS22fCp4dE0hmmU-9" target="rdGUtyS22fCp4dE0hmmU-13">
          <mxGeometry relative="1" as="geometry" />
        </mxCell>
        <mxCell id="rdGUtyS22fCp4dE0hmmU-9" value="120/24VAC transformer" style="triangle;whiteSpace=wrap;html=1;" vertex="1" parent="1">
          <mxGeometry x="-400" y="160" width="110" height="120" as="geometry" />
        </mxCell>
        <mxCell id="rdGUtyS22fCp4dE0hmmU-10" value="Control Button 2" style="rhombus;whiteSpace=wrap;html=1;" vertex="1" parent="1">
          <mxGeometry x="60" y="160" width="80" height="80" as="geometry" />
        </mxCell>
        <mxCell id="rdGUtyS22fCp4dE0hmmU-11" value="Control Button 1" style="rhombus;whiteSpace=wrap;html=1;" vertex="1" parent="1">
          <mxGeometry x="-70" y="160" width="80" height="80" as="geometry" />
        </mxCell>
        <mxCell id="rdGUtyS22fCp4dE0hmmU-22" value="Power Wire&lt;div&gt;&lt;br&gt;&lt;/div&gt;" style="edgeStyle=orthogonalEdgeStyle;rounded=0;orthogonalLoop=1;jettySize=auto;html=1;" edge="1" parent="1" source="rdGUtyS22fCp4dE0hmmU-13" target="rdGUtyS22fCp4dE0hmmU-4">
          <mxGeometry relative="1" as="geometry" />
        </mxCell>
        <mxCell id="rdGUtyS22fCp4dE0hmmU-13" value="24VAC &amp;gt; 5VDC Buck Converter" style="rounded=1;whiteSpace=wrap;html=1;" vertex="1" parent="1">
          <mxGeometry x="-240" y="340" width="120" height="60" as="geometry" />
        </mxCell>
        <mxCell id="rdGUtyS22fCp4dE0hmmU-19" style="edgeStyle=orthogonalEdgeStyle;rounded=0;orthogonalLoop=1;jettySize=auto;html=1;" edge="1" parent="1" source="rdGUtyS22fCp4dE0hmmU-17" target="rdGUtyS22fCp4dE0hmmU-7">
          <mxGeometry relative="1" as="geometry" />
        </mxCell>
        <mxCell id="rdGUtyS22fCp4dE0hmmU-17" value="24VAC coil 240V Contact Contactor" style="rounded=1;whiteSpace=wrap;html=1;" vertex="1" parent="1">
          <mxGeometry x="-430" y="660" width="120" height="60" as="geometry" />
        </mxCell>
        <mxCell id="rdGUtyS22fCp4dE0hmmU-21" value="Signal Wire&lt;div&gt;&lt;br&gt;&lt;/div&gt;" style="edgeStyle=orthogonalEdgeStyle;rounded=0;orthogonalLoop=1;jettySize=auto;html=1;entryX=0.5;entryY=0.925;entryDx=0;entryDy=0;entryPerimeter=0;" edge="1" parent="1" source="rdGUtyS22fCp4dE0hmmU-4" target="rdGUtyS22fCp4dE0hmmU-11">
          <mxGeometry relative="1" as="geometry" />
        </mxCell>
        <mxCell id="rdGUtyS22fCp4dE0hmmU-25" value="Power+Signal Wire" style="edgeStyle=orthogonalEdgeStyle;rounded=0;orthogonalLoop=1;jettySize=auto;html=1;" edge="1" parent="1" source="rdGUtyS22fCp4dE0hmmU-28" target="rdGUtyS22fCp4dE0hmmU-30">
          <mxGeometry relative="1" as="geometry" />
        </mxCell>
        <mxCell id="rdGUtyS22fCp4dE0hmmU-26" value="Power + Signal Wire" style="edgeStyle=orthogonalEdgeStyle;rounded=0;orthogonalLoop=1;jettySize=auto;html=1;exitX=0.5;exitY=1;exitDx=0;exitDy=0;" edge="1" parent="1" source="rdGUtyS22fCp4dE0hmmU-28" target="rdGUtyS22fCp4dE0hmmU-29">
          <mxGeometry relative="1" as="geometry" />
        </mxCell>
        <mxCell id="rdGUtyS22fCp4dE0hmmU-27" value="Signal Wire&lt;div&gt;&lt;br&gt;&lt;/div&gt;" style="edgeStyle=orthogonalEdgeStyle;rounded=0;orthogonalLoop=1;jettySize=auto;html=1;entryX=0.5;entryY=1;entryDx=0;entryDy=0;" edge="1" parent="1" source="rdGUtyS22fCp4dE0hmmU-28" target="rdGUtyS22fCp4dE0hmmU-31">
          <mxGeometry relative="1" as="geometry" />
        </mxCell>
        <mxCell id="rdGUtyS22fCp4dE0hmmU-28" value="Control Board 2" style="rounded=1;whiteSpace=wrap;html=1;" vertex="1" parent="1">
          <mxGeometry x="-30" y="690" width="120" height="60" as="geometry" />
        </mxCell>
        <mxCell id="rdGUtyS22fCp4dE0hmmU-29" value="Servo on Gate 2" style="ellipse;whiteSpace=wrap;html=1;aspect=fixed;" vertex="1" parent="1">
          <mxGeometry x="280" y="860" width="80" height="80" as="geometry" />
        </mxCell>
        <mxCell id="rdGUtyS22fCp4dE0hmmU-30" value="Servo on Gate 1" style="ellipse;whiteSpace=wrap;html=1;aspect=fixed;" vertex="1" parent="1">
          <mxGeometry x="280" y="680" width="80" height="80" as="geometry" />
        </mxCell>
        <mxCell id="rdGUtyS22fCp4dE0hmmU-31" value="Control Button 2" style="rhombus;whiteSpace=wrap;html=1;" vertex="1" parent="1">
          <mxGeometry x="50" y="510" width="80" height="80" as="geometry" />
        </mxCell>
        <mxCell id="rdGUtyS22fCp4dE0hmmU-32" value="Control Button 1" style="rhombus;whiteSpace=wrap;html=1;" vertex="1" parent="1">
          <mxGeometry x="-80" y="510" width="80" height="80" as="geometry" />
        </mxCell>
        <mxCell id="rdGUtyS22fCp4dE0hmmU-33" value="Signal Wire&lt;div&gt;&lt;br&gt;&lt;/div&gt;" style="edgeStyle=orthogonalEdgeStyle;rounded=0;orthogonalLoop=1;jettySize=auto;html=1;entryX=0.5;entryY=0.925;entryDx=0;entryDy=0;entryPerimeter=0;" edge="1" parent="1" source="rdGUtyS22fCp4dE0hmmU-28" target="rdGUtyS22fCp4dE0hmmU-32">
          <mxGeometry relative="1" as="geometry" />
        </mxCell>
        <mxCell id="rdGUtyS22fCp4dE0hmmU-34" value="" style="shape=flexArrow;endArrow=classic;startArrow=classic;html=1;rounded=0;" edge="1" parent="1" target="rdGUtyS22fCp4dE0hmmU-35">
          <mxGeometry width="100" height="100" relative="1" as="geometry">
            <mxPoint x="-310" y="560" as="sourcePoint" />
            <mxPoint x="-230" y="470" as="targetPoint" />
          </mxGeometry>
        </mxCell>
        <mxCell id="rdGUtyS22fCp4dE0hmmU-35" value="Mesh Coms&lt;div&gt;&lt;br&gt;&lt;/div&gt;" style="ellipse;whiteSpace=wrap;html=1;aspect=fixed;" vertex="1" parent="1">
          <mxGeometry x="-230" y="450" width="80" height="80" as="geometry" />
        </mxCell>
        <mxCell id="rdGUtyS22fCp4dE0hmmU-36" value="" style="shape=flexArrow;endArrow=classic;startArrow=classic;html=1;rounded=0;exitX=1;exitY=0;exitDx=0;exitDy=0;" edge="1" parent="1" source="rdGUtyS22fCp4dE0hmmU-35">
          <mxGeometry width="100" height="100" relative="1" as="geometry">
            <mxPoint x="-105" y="450" as="sourcePoint" />
            <mxPoint x="-10" y="390" as="targetPoint" />
            <Array as="points">
              <mxPoint x="-55" y="420" />
            </Array>
          </mxGeometry>
        </mxCell>
        <mxCell id="rdGUtyS22fCp4dE0hmmU-37" value="" style="shape=flexArrow;endArrow=classic;startArrow=classic;html=1;rounded=0;exitX=0;exitY=0;exitDx=0;exitDy=0;entryX=0.825;entryY=0.938;entryDx=0;entryDy=0;entryPerimeter=0;" edge="1" parent="1" source="rdGUtyS22fCp4dE0hmmU-28" target="rdGUtyS22fCp4dE0hmmU-35">
          <mxGeometry width="100" height="100" relative="1" as="geometry">
            <mxPoint x="-250" y="600" as="sourcePoint" />
            <mxPoint x="-165" y="550" as="targetPoint" />
          </mxGeometry>
        </mxCell>
        <mxCell id="rdGUtyS22fCp4dE0hmmU-39" value="&lt;h1 style=&quot;margin-top: 0px;&quot;&gt;Notes:&lt;/h1&gt;&lt;div&gt;System shows 2 control boards with 2 gates at present. however the system can be expanded further. Each board can maintain 4 gates each, and at present I have 3 control boards, a status monitor, and the collector controller.&lt;/div&gt;" style="text;html=1;whiteSpace=wrap;overflow=hidden;rounded=0;" vertex="1" parent="1">
          <mxGeometry x="-391" y="771" width="290" height="140" as="geometry" />
        </mxCell>
      </root>
    </mxGraphModel>
  </diagram>
</mxfile>
